<?xml version="1.0" encoding="utf-8"?>
<!-- Generator: Adobe Illustrator 21.0.0, SVG Export Plug-In . SVG Version: 6.00 Build 0)  -->
<svg version="1.1" id="Layer_1" xmlns="http://www.w3.org/2000/svg" xmlns:xlink="http://www.w3.org/1999/xlink" x="0px" y="0px"
	 viewBox="0 0 50 50" style="enable-background:new 0 0 50 50;" xml:space="preserve">
<style type="text/css">
	.st0{fill:#252525;}
</style>
<g>
	<g>
		<path class="st0" d="M25,50c-6.7,0-13-2.6-17.7-7.3C2.6,38,0,31.7,0,25S2.6,12,7.3,7.3C12,2.6,18.3,0,25,0s13,2.6,17.7,7.3
			C47.4,12,50,18.3,50,25s-2.6,13-7.3,17.7C38,47.4,31.7,50,25,50z M25,1.3C11.9,1.3,1.3,11.9,1.3,25c0,13.1,10.6,23.7,23.7,23.7
			c13.1,0,23.7-10.6,23.7-23.7C48.7,11.9,38.1,1.3,25,1.3z"/>
	</g>
	<g>
		<polygon class="st0" points="17.9,46.8 23.1,29.2 24.3,29.6 20.6,42.3 37.3,25.7 9.6,25.7 32.1,3.2 26.9,20.8 25.7,20.4 29.4,7.7 
			12.7,24.3 40.4,24.3 		"/>
	</g>
</g>
</svg>
