<?xml version="1.0" encoding="utf-8"?>
<!-- Generator: Adobe Illustrator 21.0.0, SVG Export Plug-In . SVG Version: 6.00 Build 0)  -->
<svg version="1.1" id="Layer_1" xmlns="http://www.w3.org/2000/svg" xmlns:xlink="http://www.w3.org/1999/xlink" x="0px" y="0px"
	 viewBox="0 0 280 30" style="enable-background:new 0 0 280 30;" xml:space="preserve">
<style type="text/css">
	.st0{fill:#252525;}
</style>
<g>
	<path class="st0" d="M6,11.6v6.7c0,2.3,0,4.2,0,5.5c0,1.3,0.1,2.3,0.1,2.8c0.1,0.6,0.2,1.1,0.4,1.5c0.2,0.4,0.6,0.6,1.1,0.6
		c0.7,0.1,1.3,0.1,1.7,0.1c0.2,0,0.3,0.1,0.3,0.2c0,0.2-0.2,0.3-0.6,0.3c-0.5,0-0.9,0-1.3,0c-0.3,0-1,0-2-0.1c-1,0-1.4,0-1.4,0
		c-0.1,0-0.3,0-0.5,0c-0.2,0-0.5,0-0.8,0c-0.4,0-0.8,0-1.3,0c-0.5,0-0.8,0-1.1,0c-0.4,0-0.6-0.1-0.6-0.3c0-0.2,0.1-0.2,0.3-0.2
		c0.3,0,0.7,0,1.1-0.1c0.3-0.1,0.6-0.3,0.7-0.6c0.1-0.3,0.3-0.8,0.4-1.5c0.1-0.6,0.1-1.5,0.2-2.8c0-1.3,0-3.1,0-5.5v-6.7
		c0-3.2,0-5.2,0-6.1c0-0.9,0-1.6-0.1-2.2C2.7,2.1,2.3,1.4,1.5,1.2C1.1,1.1,0.7,1.1,0.3,1.1C0.1,1.1,0,1,0,0.9c0-0.2,0.2-0.4,0.6-0.4
		c0.3,0,0.8,0,1.5,0c0.7,0,1.3,0,1.7,0.1c0.4,0,0.6,0,0.6,0c0,0,0.2,0,0.5,0c0.4,0,0.9,0,1.7-0.1c0.7,0,1.2,0,1.5,0
		c0.4,0,0.6,0.1,0.6,0.4c0,0.1-0.1,0.2-0.3,0.2c-0.2,0-0.5,0-1,0.1C7,1.3,6.7,1.5,6.5,1.8C6.3,2.1,6.1,2.7,6.1,3.4
		C6.1,4,6,4.7,6,5.6C6,6.5,6,8.5,6,11.6z"/>
	<path class="st0" d="M23.8,5.9l0.5,18.3c0,1.6,0.2,2.6,0.4,3.3c0.2,0.6,0.6,1,1.1,1.2c0.6,0.1,1.2,0.2,1.9,0.2
		c0.2,0,0.3,0.1,0.3,0.2c0,0.2-0.2,0.3-0.7,0.3c-0.4,0-1.1,0-2.2-0.1c-1,0-1.7-0.1-1.9-0.1c0,0-0.4,0-1.2,0c-0.8,0-1.3,0-1.5,0.1
		c-0.2,0-0.6,0-1,0c-0.4,0-0.6-0.1-0.6-0.3c0-0.2,0.1-0.2,0.3-0.2c0.6,0,1.1-0.1,1.6-0.2c0.5-0.1,0.8-0.5,0.9-1.2
		c0.1-0.7,0.2-1.9,0.2-3.7l0-21.9c0-0.7,0-1.2,0.1-1.5C22.2,0.1,22.3,0,22.5,0c0.1,0,0.2,0.1,0.4,0.2c0.1,0.1,0.3,0.3,0.5,0.6
		c0.2,0.2,0.4,0.4,0.4,0.5c0.3,0.4,0.8,0.8,1.3,1.4c0.6,0.6,1.5,1.6,2.8,3c1.3,1.4,2.6,2.8,3.8,4.1c1.2,1.3,2.6,2.8,4.2,4.5
		c1.9,2,3.1,3.4,3.7,4.1c0.6,0.7,1.6,1.8,3.1,3.5c1.5,1.6,2.2,2.5,2.3,2.5L44.5,4.9c0-1.3-0.1-2.2-0.3-2.7c-0.2-0.5-0.6-0.8-1.1-1
		c-0.6-0.1-1.2-0.2-1.9-0.2c-0.2,0-0.3-0.1-0.3-0.3c0-0.2,0.3-0.3,0.8-0.3c0.4,0,0.9,0,1.6,0s1.2,0,1.6,0.1c0.4,0,0.6,0,0.7,0
		c0,0,0.2,0,0.6,0c0.3,0,0.8,0,1.3-0.1s1,0,1.4,0c0.5,0,0.7,0.1,0.7,0.3c0,0.2-0.1,0.3-0.4,0.3c-0.3,0-0.6,0-0.9,0.1
		c-0.6,0.1-1,0.4-1.2,0.9c-0.2,0.5-0.2,1.3-0.2,2.5L46.7,27c0,1.2,0,2-0.1,2.3c0,0.3-0.1,0.5-0.3,0.5c-0.1,0-0.3-0.1-0.6-0.3
		c-0.2-0.2-1-0.9-2.2-2.1c-0.3-0.3-0.8-0.8-1.2-1.3c-0.5-0.5-1.2-1.2-2.1-2.1c-0.9-0.9-2.1-2.2-3.6-3.8s-2.5-2.7-3-3.1
		c-1.5-1.6-2.6-2.9-3.4-3.8c-0.8-0.9-1.7-1.9-2.6-2.9c-0.9-1-1.6-1.8-2.2-2.5C24.9,7.1,24.3,6.5,23.8,5.9z"/>
	<path class="st0" d="M71,2.2v16.2c0,2.3,0,4.2,0,5.5c0,1.3,0.1,2.3,0.1,2.8c0.1,0.6,0.2,1.1,0.4,1.5c0.2,0.4,0.6,0.6,1.1,0.6
		c0.7,0.1,1.3,0.1,1.7,0.1c0.2,0,0.3,0.1,0.3,0.2c0,0.2-0.2,0.3-0.6,0.3c-0.5,0-0.9,0-1.3,0c-0.3,0-1,0-2-0.1c-1,0-1.4,0-1.4,0
		c-0.1,0-0.3,0-0.5,0c-0.2,0-0.4,0-0.8,0c-0.4,0-0.8,0-1.3,0c-0.5,0-0.8,0-1.1,0c-0.4,0-0.6-0.1-0.6-0.3c0-0.2,0.1-0.2,0.3-0.2
		c0.3,0,0.7,0,1.1-0.1c0.3-0.1,0.6-0.3,0.7-0.6c0.1-0.3,0.3-0.8,0.4-1.5c0.1-0.6,0.1-1.5,0.2-2.8c0-1.3,0-3.1,0-5.5V2.2l-5.6,0.1
		c-1.2,0-2,0.1-2.6,0.3c-0.5,0.2-1,0.5-1.3,0.9c-0.3,0.5-0.5,0.9-0.6,1.2c-0.1,0.2-0.2,0.4-0.4,0.4c-0.1,0-0.2-0.1-0.2-0.3
		c0-0.2,0.1-0.9,0.4-2c0.3-1.1,0.4-1.8,0.5-2C58.1,0.3,58.2,0,58.4,0c0,0,0.2,0.1,0.5,0.2c0.3,0.1,0.7,0.2,1.1,0.2
		c1.1,0.1,2.1,0.2,3,0.2h14.2c0.7,0,1.4,0,1.9-0.1c0.5-0.1,0.9-0.1,1.3-0.2c0.3-0.1,0.5-0.1,0.6-0.1c0.1,0,0.2,0.2,0.2,0.5
		c0,0.2,0,0.8,0,1.7c0,0.9-0.1,1.5-0.1,1.9c0,0.4,0,0.6,0,0.6c0,0.3-0.1,0.5-0.3,0.5c-0.2,0-0.3-0.2-0.3-0.6l0-0.5
		c-0.1-0.6-0.5-1.1-1.1-1.5c-0.7-0.4-1.8-0.5-3.5-0.6L71,2.2z"/>
	<path class="st0" d="M92.9,18.4v-6.7c0-3.2,0-5.2,0-6.1c0-0.9,0-1.6-0.1-2.2c0-0.7-0.2-1.2-0.4-1.5c-0.2-0.3-0.6-0.5-1.2-0.7
		c-0.3-0.1-0.7-0.1-1.3-0.1c-0.2,0-0.3-0.1-0.3-0.2c0-0.2,0.2-0.4,0.6-0.4c0.4,0,1,0,1.8,0c0.8,0,1.4,0,1.9,0.1c0.5,0,0.7,0,0.6,0
		c5.2,0,8.1,0,8.7,0c0.7,0,1.2-0.1,1.6-0.2c0,0,0.1,0,0.2-0.1c0.1-0.1,0.2-0.1,0.3-0.1c0.1,0,0.1,0.1,0.1,0.4c0,0.1,0,0.4-0.1,0.7
		c-0.1,0.4-0.1,0.7-0.2,1.1c0,0.3-0.1,0.8-0.1,1.4c0,0.6-0.1,1-0.1,1.1c-0.1,0.3-0.1,0.4-0.3,0.4c-0.2,0-0.3-0.2-0.3-0.5
		c0-0.6-0.1-1-0.2-1.4s-0.4-0.6-0.7-0.8c-0.3-0.2-1-0.3-2-0.4c-0.2,0-0.9-0.1-2.1-0.1c-1.2,0-2.2,0-3.1,0c-0.1,0-0.2,0.1-0.2,0.4V13
		c0,0.3,0.1,0.4,0.2,0.4c3.4,0,5.4,0,6-0.1c0.9-0.1,1.5-0.3,1.8-0.5c0.2-0.2,0.3-0.3,0.4-0.4c0.1-0.1,0.1-0.1,0.2-0.1
		c0.1,0,0.2,0.1,0.2,0.3c-0.2,0.9-0.3,1.6-0.3,2.1c-0.1,1-0.1,1.8-0.1,2.5c0,0.5-0.1,0.7-0.3,0.7c-0.2,0-0.3-0.1-0.3-0.3
		c0-0.5,0-0.9-0.1-1.3c-0.2-0.8-0.9-1.2-2-1.3c-1.3-0.1-3.1-0.2-5.4-0.2c-0.2,0-0.3,0.1-0.3,0.3v3.4v6.5c0,0.9,0.2,1.6,0.4,2
		c0.2,0.4,0.6,0.7,1.2,0.9c0.6,0.2,1.5,0.2,2.8,0.2c0.8,0,1.5,0,2.1-0.1c0.6-0.1,1.1-0.2,1.5-0.3c0.5-0.2,0.9-0.6,1.1-1
		c0.3-0.4,0.4-1,0.6-1.8c0.1-0.4,0.2-0.6,0.3-0.6c0.2,0,0.2,0.2,0.2,0.6c0,0.2-0.1,0.8-0.2,1.7c-0.1,0.9-0.2,1.6-0.3,2
		c-0.1,0.3-0.2,0.5-0.3,0.7c-0.1,0.1-0.3,0.2-0.5,0.3c-0.2,0-0.6,0-1.2,0c-2.3,0-4.4,0-6.4-0.1c-2-0.1-3-0.1-2.9-0.1
		c-0.1,0-0.3,0-0.5,0c-0.2,0-0.5,0-0.8,0c-0.4,0-0.8,0-1.3,0c-0.5,0-0.8,0-1.1,0c-0.4,0-0.6-0.1-0.6-0.3c0-0.2,0.1-0.2,0.3-0.2
		c0.3,0,0.7,0,1.1-0.1c0.3-0.1,0.6-0.3,0.7-0.6c0.1-0.3,0.3-0.8,0.4-1.5c0.1-0.6,0.1-1.5,0.2-2.8C92.9,22.5,92.9,20.7,92.9,18.4z"/>
	<path class="st0" d="M119.8,18.4v-6.7c0-3.2,0-5.2,0-6.1c0-0.9,0-1.6-0.1-2.2c0-0.7-0.2-1.2-0.4-1.5c-0.2-0.3-0.6-0.5-1.2-0.7
		c-0.3-0.1-0.7-0.1-1.3-0.1c-0.2,0-0.3-0.1-0.3-0.2c0-0.2,0.2-0.4,0.6-0.4c0.4,0,1,0,1.8,0c0.8,0,1.4,0,1.9,0.1c0.5,0,0.7,0,0.6,0
		c0.9,0,1.8-0.1,2.7-0.1c0.9,0,1.5,0,1.7,0c3,0,5.3,0.6,6.9,1.7c0.6,0.4,1.2,1.1,1.8,2c0.6,0.9,0.8,2,0.8,3.2c0,1.5-0.3,3-1,4.4
		c-0.7,1.4-1.9,2.9-3.5,4.5c1.2,1.5,2.2,2.9,3.1,4.1c0.9,1.2,1.8,2.3,2.5,3.2c0.8,0.9,1.5,1.8,2.2,2.5c1.5,1.6,3,2.5,4.6,2.8
		c0.5,0.1,1,0.1,1.5,0.1c0.2,0,0.4,0.1,0.4,0.2c0,0.2-0.3,0.3-0.9,0.3h-2.7c-1,0-1.8-0.1-2.4-0.2c-0.6-0.1-1.1-0.3-1.7-0.6
		c-0.6-0.3-1.1-0.7-1.5-1.2c-0.5-0.5-0.9-1-1.4-1.6s-1.2-1.5-2.2-2.9c-0.5-0.6-0.9-1.2-1.2-1.7c-0.4-0.5-0.8-1.1-1.3-1.7
		c-0.5-0.7-0.8-1.2-1.1-1.5c-0.2-0.3-0.4-0.6-0.6-0.8c-0.1-0.1-0.3-0.2-0.5-0.2l-4.7-0.1c-0.2,0-0.3,0.1-0.3,0.3v0.9
		c0,1.1,0,2.3,0,3.4c0,1.1,0,2.1,0.1,3c0,0.9,0.1,1.5,0.1,1.9c0.1,0.6,0.2,1.1,0.4,1.5c0.2,0.3,0.6,0.6,1.1,0.6
		c0.7,0.1,1.3,0.1,1.7,0.1c0.2,0,0.3,0.1,0.3,0.2c0,0.2-0.2,0.3-0.6,0.3c-0.5,0-0.9,0-1.3,0c-0.3,0-1,0-2-0.1c-1,0-1.5,0-1.4,0
		c-0.1,0-0.2,0-0.4,0c-0.2,0-0.4,0-0.8,0c-0.4,0-0.8,0-1.2,0c-0.4,0-0.8,0-1.1,0c-0.4,0-0.6-0.1-0.6-0.3c0-0.2,0.1-0.2,0.3-0.2
		c0.3,0,0.7,0,1.1-0.1c0.3-0.1,0.6-0.3,0.7-0.6c0.1-0.3,0.3-0.8,0.4-1.5c0.1-0.6,0.1-1.5,0.2-2.8C119.8,22.5,119.8,20.7,119.8,18.4z
		 M122.8,2.5V15c0,0.2,0.1,0.3,0.3,0.4c0.3,0.2,0.8,0.3,1.6,0.5c0.8,0.1,1.6,0.2,2.4,0.2c1.2,0,2.1-0.3,2.8-0.8
		c0.7-0.5,1.2-1.2,1.7-2.2c0.4-1,0.6-2.2,0.6-3.6c0-1.2-0.2-2.3-0.5-3.3c-0.3-0.9-0.7-1.7-1.3-2.4c-0.5-0.6-1.2-1.1-2.1-1.5
		c-0.8-0.4-1.7-0.5-2.7-0.5c-1.2,0-2,0.1-2.5,0.2C122.9,2.1,122.8,2.2,122.8,2.5z"/>
	<path class="st0" d="M152.4,27.8h10.3c1.9,0,3.2-0.2,4.1-0.5c0.8-0.3,1.5-0.8,1.9-1.4c0.2-0.2,0.3-0.6,0.5-1
		c0.1-0.4,0.2-0.8,0.3-1.1c0.1-0.4,0.2-0.6,0.4-0.6c0.2,0,0.3,0.3,0.3,0.9c0,1-0.3,2.4-0.8,4.4c-0.1,0.5-0.2,0.8-0.3,0.9
		c-0.1,0.1-0.4,0.1-0.8,0.1c-1,0-2.6,0-4.8,0c-2.1,0-3.7,0-4.8-0.1c-1.1,0-2.4,0-4-0.1c-1.6,0-3.5,0-5.7,0c-0.4,0-0.7-0.1-0.7-0.3
		c0-0.2,0.2-0.5,0.5-1.1c4.7-7.1,8-12.2,10-15.3c2-3,4.2-6.6,6.7-10.6h-8.2c-2.7,0-4.5,0.3-5.5,0.8c-0.6,0.3-1.1,0.8-1.5,1.4
		c-0.4,0.6-0.6,1.1-0.7,1.7c-0.1,0.5-0.2,0.7-0.4,0.7c-0.2,0-0.2-0.2-0.2-0.5c0-0.3,0.3-2,0.8-5.1c0.1-0.5,0.2-0.8,0.4-0.8
		c0.1,0,0.3,0,0.6,0.1c0.3,0.1,0.7,0.1,1,0.1c2.4,0.1,4.6,0.1,6.6,0.1h10.6c0.5,0,0.8,0.1,0.8,0.3c0,0.2-0.1,0.3-0.2,0.5
		c-1.6,2.5-3,4.8-4.3,6.8c-1.3,2-2.7,4.2-4.2,6.6c-1.5,2.4-3,4.7-4.5,6.9C154.8,24.1,153.5,26.1,152.4,27.8z"/>
	<path class="st0" d="M176.7,15c0-1.6,0.3-3.3,0.9-5.1c0.6-1.7,1.5-3.4,2.8-4.9c1.2-1.5,2.8-2.7,4.7-3.6c1.9-0.9,4.1-1.4,6.6-1.4
		c2.2,0,4.1,0.3,5.9,1c1.8,0.7,3.4,1.6,4.7,2.9c1.3,1.3,2.4,2.8,3.1,4.5c0.7,1.8,1.1,3.8,1.1,6c0,2.8-0.6,5.5-1.9,7.9
		c-1.3,2.4-3,4.3-5.3,5.7c-2.3,1.4-4.9,2.1-7.9,2.1c-2.5,0-4.6-0.4-6.5-1.3c-1.9-0.9-3.4-2.1-4.6-3.5c-1.2-1.5-2.1-3.1-2.7-4.9
		C177,18.5,176.7,16.7,176.7,15z M180.3,13.9c0,2.2,0.3,4.2,0.9,6c0.6,1.8,1.5,3.3,2.6,4.6c1.1,1.3,2.4,2.3,3.9,3
		c1.5,0.7,3.1,1,4.7,1c1.5,0,3-0.4,4.6-1.1c1.6-0.7,3-2.1,4.1-4c1.2-2,1.8-4.6,1.8-8c0-2.2-0.3-4.2-0.9-6c-0.6-1.8-1.5-3.3-2.5-4.5
		s-2.3-2.1-3.7-2.7c-1.4-0.6-2.8-0.9-4.3-0.9c-2.1,0-4.1,0.5-5.7,1.4c-1.7,0.9-3,2.4-3.9,4.3C180.8,8.9,180.3,11.2,180.3,13.9z"/>
	<path class="st0" d="M219.8,5.9l0.5,18.3c0,1.6,0.2,2.6,0.4,3.3c0.2,0.6,0.6,1,1.1,1.2c0.6,0.1,1.2,0.2,1.9,0.2
		c0.2,0,0.3,0.1,0.3,0.2c0,0.2-0.2,0.3-0.7,0.3c-0.4,0-1.1,0-2.2-0.1c-1,0-1.7-0.1-1.9-0.1c0,0-0.4,0-1.2,0c-0.8,0-1.3,0-1.5,0.1
		c-0.2,0-0.6,0-1,0s-0.6-0.1-0.6-0.3c0-0.2,0.1-0.2,0.3-0.2c0.6,0,1.1-0.1,1.6-0.2c0.5-0.1,0.8-0.5,0.9-1.2c0.1-0.7,0.2-1.9,0.2-3.7
		l0-21.9c0-0.7,0-1.2,0.1-1.5c0.1-0.3,0.2-0.4,0.3-0.4c0.1,0,0.2,0.1,0.4,0.2c0.1,0.1,0.3,0.3,0.5,0.6c0.2,0.2,0.4,0.4,0.4,0.5
		c0.3,0.4,0.8,0.8,1.3,1.4c0.6,0.6,1.5,1.6,2.8,3c1.3,1.4,2.6,2.8,3.8,4.1s2.6,2.8,4.2,4.5c1.9,2,3.1,3.4,3.7,4.1
		c0.6,0.7,1.6,1.8,3.1,3.5c1.5,1.6,2.2,2.5,2.3,2.5l-0.4-19.4c0-1.3-0.1-2.2-0.3-2.7c-0.2-0.5-0.6-0.8-1.1-1
		c-0.6-0.1-1.2-0.2-1.9-0.2c-0.2,0-0.3-0.1-0.3-0.3c0-0.2,0.3-0.3,0.8-0.3c0.4,0,0.9,0,1.6,0s1.2,0,1.6,0.1c0.4,0,0.6,0,0.7,0
		c0,0,0.2,0,0.6,0c0.3,0,0.8,0,1.3-0.1c0.5,0,1,0,1.4,0c0.5,0,0.7,0.1,0.7,0.3c0,0.2-0.1,0.3-0.4,0.3c-0.3,0-0.6,0-0.9,0.1
		c-0.6,0.1-1,0.4-1.2,0.9c-0.2,0.5-0.2,1.3-0.2,2.5L242.7,27c0,1.2,0,2-0.1,2.3c0,0.3-0.1,0.5-0.3,0.5c-0.1,0-0.3-0.1-0.6-0.3
		c-0.2-0.2-1-0.9-2.2-2.1c-0.3-0.3-0.8-0.8-1.2-1.3c-0.5-0.5-1.2-1.2-2.1-2.1c-0.9-0.9-2.1-2.2-3.6-3.8c-1.5-1.6-2.5-2.7-3-3.1
		c-1.5-1.6-2.6-2.9-3.5-3.8c-0.8-0.9-1.7-1.9-2.6-2.9c-0.9-1-1.6-1.8-2.2-2.5C220.9,7.1,220.3,6.5,219.8,5.9z"/>
	<path class="st0" d="M279.6,28.9c-0.6,0-1.1-0.1-1.5-0.2c-0.5-0.1-1.1-0.5-1.6-1.1c-0.5-0.6-1.1-1.6-1.7-3.1
		c-0.6-1.5-1.4-3.5-2.3-5.9c-0.9-2.4-1.7-4.4-2.3-6c-0.6-1.6-1.4-3.7-2.3-6.1c-0.9-2.5-1.6-4.1-1.9-5c-0.2-0.5-0.3-0.9-0.5-1.1
		c-0.1-0.2-0.2-0.3-0.4-0.3c-0.2,0-0.5,0.5-0.9,1.5l-8.6,23.7c-0.4,1.1-0.8,1.9-1.3,2.5c-0.5,0.6-1.1,1-1.9,1.1
		c-0.4,0-0.8,0.1-1.1,0.1c-0.2,0-0.3,0.1-0.3,0.2c0,0.2,0.2,0.3,0.7,0.3c0.4,0,0.9,0,1.5,0c0.5,0,1,0,1.4,0c0.4,0,0.7,0,0.8,0
		c0.2,0,0.4,0,0.6,0c0.2,0,0.4,0,0.5,0c0.1,0,0.4,0,0.6,0c0.3,0,0.6,0,0.9,0c0.3,0,0.6,0,0.9,0c0.4,0,0.6-0.1,0.6-0.3
		c0-0.2-0.1-0.2-0.4-0.2h-0.4c-0.4,0-0.7-0.1-1-0.3c-0.3-0.2-0.5-0.5-0.5-0.8c0-0.7,0.2-1.6,0.5-2.6l6.3-19.1
		c0.1-0.3,0.2-0.4,0.3-0.4c0.1,0,0.2,0.1,0.3,0.4l7.8,21.6c0,0.1,0.1,0.3,0.1,0.5c0,0.3-0.1,0.5-0.3,0.6c-0.2,0-0.3,0.1-0.3,0.3
		c0,0.1,0.1,0.2,0.3,0.2c0.2,0,0.5,0,0.9,0.1c1.7,0,3.7,0.1,5.9,0.1c0.5,0,0.8-0.1,0.8-0.3C280,29,279.9,28.9,279.6,28.9z"/>
</g>
</svg>
